<mxfile host="Electron" modified="2023-07-09T09:29:35.347Z" agent="Mozilla/5.0 (Macintosh; Intel Mac OS X 10_15_7) AppleWebKit/537.36 (KHTML, like Gecko) draw.io/21.5.0 Chrome/112.0.5615.204 Electron/24.5.1 Safari/537.36" etag="18JPcRcIbuP6K_EzLMuD" version="21.5.0" type="device" pages="3">
  <diagram name="大数据架构" id="zl_y5lM4s7gCjHx6JeRD">
    <mxGraphModel dx="1114" dy="793" grid="1" gridSize="10" guides="1" tooltips="1" connect="1" arrows="1" fold="1" page="1" pageScale="1" pageWidth="827" pageHeight="1169" math="0" shadow="0">
      <root>
        <mxCell id="0" />
        <mxCell id="1" parent="0" />
        <mxCell id="_0J83vt9lopj5Nq49rvL-1" value="数&lt;br style=&quot;font-size: 20px;&quot;&gt;据&lt;br style=&quot;font-size: 20px;&quot;&gt;源" style="rounded=1;whiteSpace=wrap;html=1;fontSize=20;fillColor=#2196f3;strokeColor=none;fontColor=#FFFFFF;arcSize=12;horizontal=1;" parent="1" vertex="1">
          <mxGeometry x="80" y="120" width="100" height="300" as="geometry" />
        </mxCell>
        <mxCell id="_0J83vt9lopj5Nq49rvL-11" value="" style="edgeStyle=orthogonalEdgeStyle;rounded=0;orthogonalLoop=1;jettySize=auto;html=1;shape=flexArrow;fillColor=#9e9e9e;strokeColor=none;fontSize=20;" parent="1" source="_0J83vt9lopj5Nq49rvL-2" target="_0J83vt9lopj5Nq49rvL-10" edge="1">
          <mxGeometry relative="1" as="geometry" />
        </mxCell>
        <mxCell id="_0J83vt9lopj5Nq49rvL-2" value="数据存储" style="rounded=1;whiteSpace=wrap;html=1;fontSize=20;fillColor=#2196f3;strokeColor=none;fontColor=#FFFFFF;arcSize=12;" parent="1" vertex="1">
          <mxGeometry x="240" y="120" width="140" height="80" as="geometry" />
        </mxCell>
        <mxCell id="_0J83vt9lopj5Nq49rvL-4" value="机器学习" style="rounded=1;whiteSpace=wrap;html=1;fontSize=20;fillColor=#2196f3;strokeColor=none;fontColor=#FFFFFF;arcSize=12;" parent="1" vertex="1">
          <mxGeometry x="440" y="240" width="140" height="60" as="geometry" />
        </mxCell>
        <mxCell id="_0J83vt9lopj5Nq49rvL-6" value="实时消息引入" style="rounded=1;whiteSpace=wrap;html=1;fontSize=20;fillColor=#2196f3;strokeColor=none;fontColor=#FFFFFF;arcSize=12;" parent="1" vertex="1">
          <mxGeometry x="240" y="340" width="140" height="80" as="geometry" />
        </mxCell>
        <mxCell id="_0J83vt9lopj5Nq49rvL-9" value="业务编排" style="rounded=1;whiteSpace=wrap;html=1;fontSize=20;fillColor=#2196f3;strokeColor=none;fontColor=#FFFFFF;arcSize=12;" parent="1" vertex="1">
          <mxGeometry x="80" y="480" width="820" height="80" as="geometry" />
        </mxCell>
        <mxCell id="_0J83vt9lopj5Nq49rvL-10" value="批处理" style="rounded=1;whiteSpace=wrap;html=1;fontSize=20;fillColor=#2196f3;strokeColor=none;fontColor=#FFFFFF;arcSize=12;" parent="1" vertex="1">
          <mxGeometry x="440" y="120" width="140" height="80" as="geometry" />
        </mxCell>
        <mxCell id="_0J83vt9lopj5Nq49rvL-14" value="" style="rounded=0;orthogonalLoop=1;jettySize=auto;html=1;shape=flexArrow;fillColor=#9e9e9e;strokeColor=none;exitX=1.005;exitY=0.133;exitDx=0;exitDy=0;exitPerimeter=0;edgeStyle=orthogonalEdgeStyle;entryX=0;entryY=0.5;entryDx=0;entryDy=0;fontSize=20;" parent="1" source="_0J83vt9lopj5Nq49rvL-1" target="_0J83vt9lopj5Nq49rvL-2" edge="1">
          <mxGeometry relative="1" as="geometry">
            <mxPoint x="220" y="170" as="sourcePoint" />
            <mxPoint x="230" y="160" as="targetPoint" />
          </mxGeometry>
        </mxCell>
        <mxCell id="_0J83vt9lopj5Nq49rvL-17" value="流处理" style="rounded=1;whiteSpace=wrap;html=1;fontSize=20;fillColor=#2196f3;strokeColor=none;fontColor=#FFFFFF;arcSize=12;" parent="1" vertex="1">
          <mxGeometry x="440" y="340" width="140" height="80" as="geometry" />
        </mxCell>
        <mxCell id="_0J83vt9lopj5Nq49rvL-20" value="" style="edgeStyle=orthogonalEdgeStyle;rounded=0;orthogonalLoop=1;jettySize=auto;html=1;shape=flexArrow;fillColor=#9e9e9e;strokeColor=none;entryX=0;entryY=0.5;entryDx=0;entryDy=0;exitX=1;exitY=0.5;exitDx=0;exitDy=0;fontSize=20;" parent="1" source="_0J83vt9lopj5Nq49rvL-6" target="_0J83vt9lopj5Nq49rvL-17" edge="1">
          <mxGeometry relative="1" as="geometry">
            <mxPoint x="410" y="419.84000000000003" as="sourcePoint" />
            <mxPoint x="470" y="419.84000000000003" as="targetPoint" />
          </mxGeometry>
        </mxCell>
        <mxCell id="_0J83vt9lopj5Nq49rvL-21" value="" style="edgeStyle=orthogonalEdgeStyle;rounded=0;orthogonalLoop=1;jettySize=auto;html=1;shape=flexArrow;fillColor=#9e9e9e;strokeColor=none;exitX=0.5;exitY=0;exitDx=0;exitDy=0;entryX=0.5;entryY=1;entryDx=0;entryDy=0;fontSize=20;" parent="1" source="_0J83vt9lopj5Nq49rvL-4" target="_0J83vt9lopj5Nq49rvL-10" edge="1">
          <mxGeometry relative="1" as="geometry">
            <mxPoint x="370" y="200" as="sourcePoint" />
            <mxPoint x="450" y="200" as="targetPoint" />
          </mxGeometry>
        </mxCell>
        <mxCell id="_0J83vt9lopj5Nq49rvL-22" value="" style="edgeStyle=orthogonalEdgeStyle;rounded=0;orthogonalLoop=1;jettySize=auto;html=1;shape=flexArrow;fillColor=#9e9e9e;strokeColor=none;entryX=0.5;entryY=0;entryDx=0;entryDy=0;exitX=0.5;exitY=1;exitDx=0;exitDy=0;fontSize=20;" parent="1" source="_0J83vt9lopj5Nq49rvL-4" target="_0J83vt9lopj5Nq49rvL-17" edge="1">
          <mxGeometry relative="1" as="geometry">
            <mxPoint x="510" y="320" as="sourcePoint" />
            <mxPoint x="520" y="230" as="targetPoint" />
          </mxGeometry>
        </mxCell>
        <mxCell id="_0J83vt9lopj5Nq49rvL-23" value="分&lt;br style=&quot;font-size: 20px;&quot;&gt;析&lt;br style=&quot;font-size: 20px;&quot;&gt;数&lt;br style=&quot;font-size: 20px;&quot;&gt;据&lt;br style=&quot;font-size: 20px;&quot;&gt;存&lt;br style=&quot;font-size: 20px;&quot;&gt;储" style="rounded=1;whiteSpace=wrap;html=1;fontSize=20;fillColor=#2196f3;strokeColor=none;fontColor=#FFFFFF;arcSize=12;horizontal=1;" parent="1" vertex="1">
          <mxGeometry x="640" y="160" width="100" height="220" as="geometry" />
        </mxCell>
        <mxCell id="_0J83vt9lopj5Nq49rvL-24" value="分析&lt;br style=&quot;font-size: 20px;&quot;&gt;和&lt;br style=&quot;font-size: 20px;&quot;&gt;报告" style="rounded=1;whiteSpace=wrap;html=1;fontSize=20;fillColor=#2196f3;strokeColor=none;fontColor=#FFFFFF;arcSize=12;horizontal=1;" parent="1" vertex="1">
          <mxGeometry x="800" y="120" width="100" height="300" as="geometry" />
        </mxCell>
        <mxCell id="_0J83vt9lopj5Nq49rvL-25" value="" style="edgeStyle=orthogonalEdgeStyle;rounded=0;orthogonalLoop=1;jettySize=auto;html=1;shape=flexArrow;fillColor=#9e9e9e;strokeColor=none;exitX=1;exitY=0.75;exitDx=0;exitDy=0;entryX=0.002;entryY=0.092;entryDx=0;entryDy=0;entryPerimeter=0;fontSize=20;" parent="1" source="_0J83vt9lopj5Nq49rvL-10" target="_0J83vt9lopj5Nq49rvL-23" edge="1">
          <mxGeometry relative="1" as="geometry">
            <mxPoint x="610" y="250" as="sourcePoint" />
            <mxPoint x="610" y="210" as="targetPoint" />
          </mxGeometry>
        </mxCell>
        <mxCell id="_0J83vt9lopj5Nq49rvL-26" value="" style="edgeStyle=orthogonalEdgeStyle;rounded=0;orthogonalLoop=1;jettySize=auto;html=1;shape=flexArrow;fillColor=#9e9e9e;strokeColor=none;exitX=1;exitY=0.25;exitDx=0;exitDy=0;entryX=0;entryY=0.909;entryDx=0;entryDy=0;entryPerimeter=0;fontSize=20;" parent="1" source="_0J83vt9lopj5Nq49rvL-17" target="_0J83vt9lopj5Nq49rvL-23" edge="1">
          <mxGeometry relative="1" as="geometry">
            <mxPoint x="580" y="389.25" as="sourcePoint" />
            <mxPoint x="640" y="390.25" as="targetPoint" />
          </mxGeometry>
        </mxCell>
        <mxCell id="_0J83vt9lopj5Nq49rvL-27" value="" style="edgeStyle=orthogonalEdgeStyle;rounded=0;orthogonalLoop=1;jettySize=auto;html=1;shape=flexArrow;fillColor=#9e9e9e;strokeColor=none;exitX=1;exitY=0.25;exitDx=0;exitDy=0;entryX=-0.005;entryY=0.065;entryDx=0;entryDy=0;entryPerimeter=0;fontSize=20;" parent="1" source="_0J83vt9lopj5Nq49rvL-10" target="_0J83vt9lopj5Nq49rvL-24" edge="1">
          <mxGeometry relative="1" as="geometry">
            <mxPoint x="580" y="170" as="sourcePoint" />
            <mxPoint x="640" y="171" as="targetPoint" />
          </mxGeometry>
        </mxCell>
        <mxCell id="_0J83vt9lopj5Nq49rvL-28" value="" style="rounded=0;orthogonalLoop=1;jettySize=auto;html=1;shape=flexArrow;fillColor=#9e9e9e;strokeColor=none;exitX=1;exitY=0.866;exitDx=0;exitDy=0;exitPerimeter=0;edgeStyle=orthogonalEdgeStyle;entryX=0;entryY=0.5;entryDx=0;entryDy=0;fontSize=20;" parent="1" source="_0J83vt9lopj5Nq49rvL-1" target="_0J83vt9lopj5Nq49rvL-6" edge="1">
          <mxGeometry relative="1" as="geometry">
            <mxPoint x="181" y="379.86" as="sourcePoint" />
            <mxPoint x="240" y="379.86" as="targetPoint" />
          </mxGeometry>
        </mxCell>
        <mxCell id="_0J83vt9lopj5Nq49rvL-29" value="" style="edgeStyle=orthogonalEdgeStyle;rounded=0;orthogonalLoop=1;jettySize=auto;html=1;shape=flexArrow;fillColor=#9e9e9e;strokeColor=none;exitX=1;exitY=0.75;exitDx=0;exitDy=0;entryX=0.002;entryY=0.932;entryDx=0;entryDy=0;entryPerimeter=0;fontSize=20;" parent="1" source="_0J83vt9lopj5Nq49rvL-17" target="_0J83vt9lopj5Nq49rvL-24" edge="1">
          <mxGeometry relative="1" as="geometry">
            <mxPoint x="590" y="150" as="sourcePoint" />
            <mxPoint x="800" y="400" as="targetPoint" />
          </mxGeometry>
        </mxCell>
      </root>
    </mxGraphModel>
  </diagram>
  <diagram id="0IiF4AJmShe0RNI0Pzhe" name="Lambda架构">
    <mxGraphModel dx="2065" dy="881" grid="1" gridSize="10" guides="1" tooltips="1" connect="1" arrows="1" fold="1" page="1" pageScale="1" pageWidth="827" pageHeight="1169" math="0" shadow="0">
      <root>
        <mxCell id="0" />
        <mxCell id="1" parent="0" />
        <mxCell id="FUOYc3Qi5RL8uHEhdGP7-1" value="" style="shape=flexArrow;endArrow=classic;html=1;rounded=0;endWidth=30.181818181818183;endSize=6.3076923076923075;width=20.94674556213018;strokeColor=none;fillColor=#ffc107;fontSize=14;" edge="1" parent="1">
          <mxGeometry width="50" height="50" relative="1" as="geometry">
            <mxPoint x="60" y="660" as="sourcePoint" />
            <mxPoint x="140" y="660" as="targetPoint" />
          </mxGeometry>
        </mxCell>
        <mxCell id="FUOYc3Qi5RL8uHEhdGP7-3" value="实时数据" style="edgeLabel;html=1;align=center;verticalAlign=middle;resizable=0;points=[];labelBackgroundColor=none;fontColor=default;fontSize=14;" vertex="1" connectable="0" parent="FUOYc3Qi5RL8uHEhdGP7-1">
          <mxGeometry x="-0.2902" y="12" relative="1" as="geometry">
            <mxPoint x="2" y="12" as="offset" />
          </mxGeometry>
        </mxCell>
        <mxCell id="FUOYc3Qi5RL8uHEhdGP7-4" value="" style="shape=flexArrow;endArrow=classic;html=1;rounded=0;endWidth=30.181818181818183;endSize=6.3076923076923075;width=20.94674556213018;strokeColor=none;fillColor=#ffc107;" edge="1" parent="1">
          <mxGeometry width="50" height="50" relative="1" as="geometry">
            <mxPoint x="60" y="720" as="sourcePoint" />
            <mxPoint x="140" y="720" as="targetPoint" />
          </mxGeometry>
        </mxCell>
        <mxCell id="FUOYc3Qi5RL8uHEhdGP7-5" value="实时数据" style="edgeLabel;html=1;align=center;verticalAlign=middle;resizable=0;points=[];labelBackgroundColor=none;fontColor=default;fontSize=14;" vertex="1" connectable="0" parent="FUOYc3Qi5RL8uHEhdGP7-4">
          <mxGeometry x="-0.2902" y="12" relative="1" as="geometry">
            <mxPoint x="2" y="12" as="offset" />
          </mxGeometry>
        </mxCell>
        <mxCell id="FUOYc3Qi5RL8uHEhdGP7-6" value="" style="shape=flexArrow;endArrow=classic;html=1;rounded=0;endWidth=30.181818181818183;endSize=6.3076923076923075;width=20.94674556213018;strokeColor=none;fillColor=#ffc107;" edge="1" parent="1">
          <mxGeometry width="50" height="50" relative="1" as="geometry">
            <mxPoint x="60" y="780" as="sourcePoint" />
            <mxPoint x="140" y="780" as="targetPoint" />
          </mxGeometry>
        </mxCell>
        <mxCell id="FUOYc3Qi5RL8uHEhdGP7-7" value="实时数据" style="edgeLabel;html=1;align=center;verticalAlign=middle;resizable=0;points=[];labelBackgroundColor=none;fontColor=default;fontSize=14;" vertex="1" connectable="0" parent="FUOYc3Qi5RL8uHEhdGP7-6">
          <mxGeometry x="-0.2902" y="12" relative="1" as="geometry">
            <mxPoint x="2" y="12" as="offset" />
          </mxGeometry>
        </mxCell>
        <mxCell id="FUOYc3Qi5RL8uHEhdGP7-21" value="Analytics Client" style="rounded=1;whiteSpace=wrap;html=1;strokeColor=none;fillColor=#009688;fontSize=14;" vertex="1" parent="1">
          <mxGeometry x="510" y="570" width="140" height="60" as="geometry" />
        </mxCell>
        <mxCell id="FUOYc3Qi5RL8uHEhdGP7-35" value="Cold Path" style="rounded=1;whiteSpace=wrap;html=1;arcSize=4;fillColor=#4db6ac;strokeColor=none;fontSize=16;verticalAlign=bottom;container=1;recursiveResize=0;collapsible=0;align=left;spacing=10;fontColor=#616161;" vertex="1" parent="1">
          <mxGeometry x="220" y="730" width="370" height="190" as="geometry" />
        </mxCell>
        <mxCell id="FUOYc3Qi5RL8uHEhdGP7-42" style="edgeStyle=orthogonalEdgeStyle;rounded=0;orthogonalLoop=1;jettySize=auto;html=1;entryX=0;entryY=0.5;entryDx=0;entryDy=0;shape=flexArrow;strokeColor=none;fillColor=#9e9e9e;endWidth=10.25;endSize=1.95875;width=4.75;" edge="1" parent="FUOYc3Qi5RL8uHEhdGP7-35" source="FUOYc3Qi5RL8uHEhdGP7-22" target="FUOYc3Qi5RL8uHEhdGP7-32">
          <mxGeometry relative="1" as="geometry" />
        </mxCell>
        <mxCell id="FUOYc3Qi5RL8uHEhdGP7-22" value="Batch Layer" style="rounded=1;whiteSpace=wrap;html=1;arcSize=4;fillColor=#009688;strokeColor=none;fontSize=16;verticalAlign=top;container=1;recursiveResize=0;collapsible=0;fontColor=#FFFFFF;" vertex="1" parent="FUOYc3Qi5RL8uHEhdGP7-35">
          <mxGeometry x="30" y="30" width="140" height="120" as="geometry" />
        </mxCell>
        <mxCell id="FUOYc3Qi5RL8uHEhdGP7-23" value="Master Data" style="rounded=1;whiteSpace=wrap;html=1;strokeColor=none;fillColor=#00796b;fontSize=14;" vertex="1" parent="FUOYc3Qi5RL8uHEhdGP7-22">
          <mxGeometry x="20" y="40" width="100" height="50" as="geometry" />
        </mxCell>
        <mxCell id="FUOYc3Qi5RL8uHEhdGP7-32" value="Speed Layer" style="rounded=1;whiteSpace=wrap;html=1;arcSize=4;fillColor=#009688;strokeColor=none;fontSize=16;verticalAlign=top;container=1;recursiveResize=0;collapsible=0;fontColor=#FFFFFF;" vertex="1" parent="FUOYc3Qi5RL8uHEhdGP7-35">
          <mxGeometry x="200" y="30" width="140" height="120" as="geometry" />
        </mxCell>
        <mxCell id="FUOYc3Qi5RL8uHEhdGP7-33" value="Batch Views" style="rounded=1;whiteSpace=wrap;html=1;strokeColor=none;fillColor=#00796b;fontSize=14;" vertex="1" parent="FUOYc3Qi5RL8uHEhdGP7-32">
          <mxGeometry x="20" y="40" width="100" height="50" as="geometry" />
        </mxCell>
        <mxCell id="FUOYc3Qi5RL8uHEhdGP7-37" value="Hot Path" style="rounded=1;whiteSpace=wrap;html=1;arcSize=4;fillColor=#4db6ac;strokeColor=none;fontSize=16;verticalAlign=bottom;container=1;recursiveResize=0;collapsible=0;align=left;spacing=10;fontColor=#616161;" vertex="1" parent="1">
          <mxGeometry x="220" y="510" width="200" height="190" as="geometry" />
        </mxCell>
        <mxCell id="FUOYc3Qi5RL8uHEhdGP7-38" value="Speed Layer" style="rounded=1;whiteSpace=wrap;html=1;arcSize=4;fillColor=#009688;strokeColor=none;fontSize=16;verticalAlign=top;container=1;recursiveResize=0;collapsible=0;fontColor=#FFFFFF;" vertex="1" parent="FUOYc3Qi5RL8uHEhdGP7-37">
          <mxGeometry x="30" y="30" width="140" height="120" as="geometry" />
        </mxCell>
        <mxCell id="FUOYc3Qi5RL8uHEhdGP7-39" value="Real-Time Views" style="rounded=1;whiteSpace=wrap;html=1;strokeColor=none;fillColor=#00796b;fontSize=14;" vertex="1" parent="FUOYc3Qi5RL8uHEhdGP7-38">
          <mxGeometry x="20" y="40" width="100" height="50" as="geometry" />
        </mxCell>
        <mxCell id="FUOYc3Qi5RL8uHEhdGP7-43" style="edgeStyle=orthogonalEdgeStyle;rounded=0;orthogonalLoop=1;jettySize=auto;html=1;entryX=0;entryY=0.5;entryDx=0;entryDy=0;shape=flexArrow;strokeColor=none;fillColor=#9e9e9e;endWidth=10.25;endSize=1.95875;width=4.75;exitX=1;exitY=0.5;exitDx=0;exitDy=0;" edge="1" parent="1" source="FUOYc3Qi5RL8uHEhdGP7-38" target="FUOYc3Qi5RL8uHEhdGP7-21">
          <mxGeometry relative="1" as="geometry">
            <mxPoint x="430" y="610" as="sourcePoint" />
            <mxPoint x="460" y="610" as="targetPoint" />
          </mxGeometry>
        </mxCell>
        <mxCell id="FUOYc3Qi5RL8uHEhdGP7-44" style="edgeStyle=orthogonalEdgeStyle;rounded=0;orthogonalLoop=1;jettySize=auto;html=1;entryX=0.75;entryY=1;entryDx=0;entryDy=0;shape=flexArrow;strokeColor=none;fillColor=#9e9e9e;endWidth=10.25;endSize=1.95875;width=4.75;exitX=1;exitY=0.5;exitDx=0;exitDy=0;" edge="1" parent="1" source="FUOYc3Qi5RL8uHEhdGP7-32" target="FUOYc3Qi5RL8uHEhdGP7-21">
          <mxGeometry relative="1" as="geometry">
            <mxPoint x="490" y="660" as="sourcePoint" />
            <mxPoint x="630" y="660" as="targetPoint" />
          </mxGeometry>
        </mxCell>
        <mxCell id="FUOYc3Qi5RL8uHEhdGP7-45" style="edgeStyle=orthogonalEdgeStyle;rounded=0;orthogonalLoop=1;jettySize=auto;html=1;entryX=0.5;entryY=0;entryDx=0;entryDy=0;shape=flexArrow;strokeColor=default;fillColor=#9e9e9e;endWidth=10.25;endSize=1.95875;width=4.75;exitX=1;exitY=0.75;exitDx=0;exitDy=0;dashed=1;dashPattern=8 8;" edge="1" parent="1" source="FUOYc3Qi5RL8uHEhdGP7-38" target="FUOYc3Qi5RL8uHEhdGP7-32">
          <mxGeometry relative="1" as="geometry">
            <mxPoint x="400" y="610" as="sourcePoint" />
            <mxPoint x="560" y="610" as="targetPoint" />
          </mxGeometry>
        </mxCell>
        <mxCell id="FUOYc3Qi5RL8uHEhdGP7-47" style="rounded=0;orthogonalLoop=1;jettySize=auto;html=1;entryX=0;entryY=0.5;entryDx=0;entryDy=0;exitX=0.5;exitY=1;exitDx=0;exitDy=0;strokeColor=#616161;strokeWidth=2;" edge="1" parent="1" source="FUOYc3Qi5RL8uHEhdGP7-46" target="FUOYc3Qi5RL8uHEhdGP7-38">
          <mxGeometry relative="1" as="geometry">
            <mxPoint x="210" y="610" as="targetPoint" />
          </mxGeometry>
        </mxCell>
        <mxCell id="FUOYc3Qi5RL8uHEhdGP7-48" style="rounded=0;orthogonalLoop=1;jettySize=auto;html=1;exitX=0.5;exitY=1;exitDx=0;exitDy=0;entryX=0;entryY=0.5;entryDx=0;entryDy=0;strokeColor=#616161;strokeWidth=2;" edge="1" parent="1" source="FUOYc3Qi5RL8uHEhdGP7-46" target="FUOYc3Qi5RL8uHEhdGP7-22">
          <mxGeometry relative="1" as="geometry" />
        </mxCell>
        <mxCell id="FUOYc3Qi5RL8uHEhdGP7-46" value="" style="shape=partialRectangle;whiteSpace=wrap;html=1;bottom=1;right=1;left=1;top=0;fillColor=none;routingCenterX=-0.5;direction=north;strokeColor=#616161;strokeWidth=2;" vertex="1" parent="1">
          <mxGeometry x="140" y="660" width="30" height="120" as="geometry" />
        </mxCell>
        <mxCell id="FUOYc3Qi5RL8uHEhdGP7-49" value="" style="shape=flexArrow;endArrow=classic;html=1;rounded=0;endWidth=30.181818181818183;endSize=6.3076923076923075;width=20.94674556213018;strokeColor=none;fillColor=#ffc107;fontSize=14;" edge="1" parent="1">
          <mxGeometry width="50" height="50" relative="1" as="geometry">
            <mxPoint x="-30" y="660" as="sourcePoint" />
            <mxPoint x="50" y="660" as="targetPoint" />
          </mxGeometry>
        </mxCell>
        <mxCell id="FUOYc3Qi5RL8uHEhdGP7-50" value="实时数据" style="edgeLabel;html=1;align=center;verticalAlign=middle;resizable=0;points=[];labelBackgroundColor=none;fontColor=default;fontSize=14;" vertex="1" connectable="0" parent="FUOYc3Qi5RL8uHEhdGP7-49">
          <mxGeometry x="-0.2902" y="12" relative="1" as="geometry">
            <mxPoint x="2" y="12" as="offset" />
          </mxGeometry>
        </mxCell>
        <mxCell id="FUOYc3Qi5RL8uHEhdGP7-51" value="" style="shape=flexArrow;endArrow=classic;html=1;rounded=0;endWidth=30.181818181818183;endSize=6.3076923076923075;width=20.94674556213018;strokeColor=none;fillColor=#ffc107;" edge="1" parent="1">
          <mxGeometry width="50" height="50" relative="1" as="geometry">
            <mxPoint x="-30" y="720" as="sourcePoint" />
            <mxPoint x="50" y="720" as="targetPoint" />
          </mxGeometry>
        </mxCell>
        <mxCell id="FUOYc3Qi5RL8uHEhdGP7-52" value="实时数据" style="edgeLabel;html=1;align=center;verticalAlign=middle;resizable=0;points=[];labelBackgroundColor=none;fontColor=default;fontSize=14;" vertex="1" connectable="0" parent="FUOYc3Qi5RL8uHEhdGP7-51">
          <mxGeometry x="-0.2902" y="12" relative="1" as="geometry">
            <mxPoint x="2" y="12" as="offset" />
          </mxGeometry>
        </mxCell>
        <mxCell id="FUOYc3Qi5RL8uHEhdGP7-53" value="" style="shape=flexArrow;endArrow=classic;html=1;rounded=0;endWidth=30.181818181818183;endSize=6.3076923076923075;width=20.94674556213018;strokeColor=none;fillColor=#ffc107;" edge="1" parent="1">
          <mxGeometry width="50" height="50" relative="1" as="geometry">
            <mxPoint x="-30" y="780" as="sourcePoint" />
            <mxPoint x="50" y="780" as="targetPoint" />
          </mxGeometry>
        </mxCell>
        <mxCell id="FUOYc3Qi5RL8uHEhdGP7-54" value="实时数据" style="edgeLabel;html=1;align=center;verticalAlign=middle;resizable=0;points=[];labelBackgroundColor=none;fontColor=default;fontSize=14;" vertex="1" connectable="0" parent="FUOYc3Qi5RL8uHEhdGP7-53">
          <mxGeometry x="-0.2902" y="12" relative="1" as="geometry">
            <mxPoint x="2" y="12" as="offset" />
          </mxGeometry>
        </mxCell>
      </root>
    </mxGraphModel>
  </diagram>
  <diagram id="tY07TWz874wG1wQxQj4a" name="Kappa架构">
    <mxGraphModel dx="1114" dy="793" grid="1" gridSize="10" guides="1" tooltips="1" connect="1" arrows="1" fold="1" page="1" pageScale="1" pageWidth="827" pageHeight="1169" math="0" shadow="0">
      <root>
        <mxCell id="0" />
        <mxCell id="1" parent="0" />
      </root>
    </mxGraphModel>
  </diagram>
</mxfile>
